HIERARCHY
ROOT Hips
{
  OFFSET 0 0 0
  CHANNELS 6 Xposition Yposition Zposition Zrotation Yrotation Xrotation
  JOINT LeftThigh
  {
    OFFSET 8.409438 0 -5.917753
    CHANNELS 3 Zrotation Yrotation Xrotation
    JOINT LeftLeg
    {
      OFFSET 0 0 -42.358652
      CHANNELS 3 Zrotation Yrotation Xrotation
      JOINT LeftFoot
      {
        OFFSET 0 0 -39.357303
        CHANNELS 3 Zrotation Yrotation Xrotation
      }
    }
  }
  JOINT RightThigh
  {
    OFFSET -8.409438 0 -5.917753
    CHANNELS 3 Zrotation Yrotation Xrotation
    JOINT RightLeg
    {
      OFFSET 0 0 -42.358652
      CHANNELS 3 Zrotation Yrotation Xrotation
      JOINT RightFoot
      {
        OFFSET 0 0 -39.357303
        CHANNELS 3 Zrotation Yrotation Xrotation
      }
    }
  }
  JOINT SpineLow
  {
    OFFSET 0 0 4.719101
    CHANNELS 3 Zrotation Yrotation Xrotation
    JOINT SpineMid
    {
      OFFSET 0 0 12.899191
      CHANNELS 3 Zrotation Yrotation Xrotation
      JOINT Chest
      {
        OFFSET 0 0 12.899191
        CHANNELS 3 Zrotation Yrotation Xrotation
        JOINT LeftShoulder
        {
          OFFSET 7.550562 1.41573 9.438202
          CHANNELS 3 Zrotation Yrotation Xrotation
          JOINT LeftArm
          {
            OFFSET 9.155056 0 4.247191
            CHANNELS 3 Zrotation Yrotation Xrotation
            JOINT LeftForearm
            {
              OFFSET 0 0 25.771955
              CHANNELS 3 Zrotation Yrotation Xrotation
              JOINT LeftHand
              {
                OFFSET 0 0 25.197169
                CHANNELS 3 Zrotation Yrotation Xrotation
              }
            }
          }
        }
        JOINT RightShoulder
        {
          OFFSET -7.550562 1.41573 9.438202
          CHANNELS 3 Zrotation Yrotation Xrotation
          JOINT RightArm
          {
            OFFSET -9.155056 0 4.247191
            CHANNELS 3 Zrotation Yrotation Xrotation
            JOINT RightForearm
            {
              OFFSET 0 0 -25.771955
              CHANNELS 3 Zrotation Yrotation Xrotation
              JOINT RightHand
              {
                OFFSET 0 0 -25.197169
                CHANNELS 3 Zrotation Yrotation Xrotation
              }
            }
          }
        }
        JOINT Neck
        {
          OFFSET 0 0 15.101124
          CHANNELS 3 Zrotation Yrotation Xrotation
          JOINT Head
          {
            OFFSET 0 0 11.325843
            CHANNELS 3 Zrotation Yrotation Xrotation
            End Site
            {
              OFFSET 0 0 14.157303
            }
          }
        }
      }
    }
  }
}
MOTION
Frames: 17
Frame Time: 0.0
0.0  89.887642  0.0  10.683959  -50.007662  -113.847146  24.284016  -38.485246  -23.661884  21.20588  38.199199  71.773286  18.329389  11.368031  9.105418  -22.215135  24.050139  -16.953659  25.656254  9.970926  47.839938  0.035963  -4.72095  -0.20587  -0.445216  1.31719  1.09021  -1.158316  3.619516  2.958319  -1.158316  3.619515  2.958319  -5.059371  17.875135  12.31656  -101.460935  46.497524  -91.337621  -41.151733  7.661307  71.895545  69.906653  -4.957797  6.60742  1.417466  -1.155337  24.682298  149.579733  40.639143  61.870308  -16.036359  -10.281801  -73.473246  94.549133  -3.112995  -18.408617  8.425688  -2.805588  9.79703  6.364943  -1.970167  7.386666  
0.0  89.887642  0.0  10.41052  -49.810313  -114.040787  23.730821  -38.523513  -23.227134  20.500662  37.63412  71.342239  18.308507  11.32685  9.157023  -21.128033  23.764413  -15.915126  25.061947  10.119403  48.177098  -0.260534  -4.70046  -0.188231  -0.498005  1.303022  1.158483  -1.299602  3.584443  3.142429  -1.299602  3.584443  3.142429  -4.755778  18.004555  12.653134  -102.56269  46.493748  -92.486807  -41.102256  7.339782  71.993367  70.183074  -4.978723  6.611654  1.442935  -0.903479  24.548157  148.883245  40.671324  61.294658  -16.331342  -9.592484  -73.537187  94.709507  -2.761122  -18.623177  8.469918  -2.761148  9.859253  6.397751  -1.935257  7.432983  
0.0  89.887642  0.0  10.247852  -49.745148  -114.11663  23.761514  -38.614185  -23.077368  19.804917  36.957912  70.861146  17.998983  11.313864  9.218422  -20.219771  23.442088  -15.17775  24.248708  10.82785  48.451904  0.215739  -4.652508  -0.222634  -0.590915  1.274303  1.18519  -1.55362  3.510962  3.210999  -1.55362  3.510962  3.210999  -4.135072  18.225626  12.929708  -103.566185  46.557751  -93.520875  -41.092724  6.998731  72.056655  70.402248  -4.916102  6.749359  1.437109  -0.594644  24.256203  148.483814  40.403362  60.582256  -16.555905  -9.074431  -73.569494  94.895354  -2.361372  -18.615034  8.752014  -2.626936  9.889706  6.607442  -1.829581  7.455425  
0.0  89.887642  0.0  10.250424  -49.755292  -114.186821  23.971191  -38.643417  -22.855893  19.26275  36.19921  70.312451  17.403504  11.246297  9.218067  -19.779264  23.115006  -14.791109  23.765926  11.491131  48.684762  0.694154  -4.745705  -0.306926  -0.571782  1.26603  1.222045  -1.499721  3.488244  3.313001  -1.499721  3.488244  3.313001  -4.130433  18.352992  12.980882  -104.429596  46.754505  -94.307221  -41.144148  6.67703  72.086978  70.490963  -4.823051  7.074505  1.387434  -0.314463  23.956244  147.701439  40.430834  59.81391  -16.685983  -8.589709  -73.587344  94.79658  -1.969126  -18.492383  8.711095  -2.55421  9.772822  6.575095  -1.777318  7.366596  
0.0  89.887642  0.0  10.515608  -49.956968  -114.417738  24.303825  -38.635486  -22.489507  18.685544  35.601093  69.628582  16.784783  11.257306  9.091643  -19.250657  22.876595  -14.613444  23.633998  11.711883  48.904559  1.079121  -4.495897  -0.458386  -0.554837  1.271331  1.247122  -1.451781  3.502419  3.382403  -1.451781  3.502419  3.382403  -3.970365  18.492341  12.955427  -105.073441  46.977464  -94.932023  -41.229143  6.385113  72.067623  70.458957  -4.743591  7.569641  0.760742  -0.193716  23.50577  147.740854  39.982398  59.26617  -17.938926  -8.411102  -73.28009  95.01486  -1.2705  -19.432537  8.793208  -2.473615  9.60671  6.634724  -1.717906  7.241293  
0.0  89.887642  0.0  10.697372  -50.062578  -114.584128  24.250048  -38.774009  -22.023123  18.438018  35.269339  68.916573  16.582197  11.2139  9.089426  -19.072815  22.637835  -14.5141  23.863912  11.548127  49.044894  0.898052  -4.477798  -0.503482  -0.515502  1.288386  1.284459  -1.341334  3.547749  3.486356  -1.341334  3.547749  3.486356  -3.988257  18.540482  12.894417  -105.59818  47.156832  -95.383393  -41.268574  6.12233  72.064469  70.345677  -4.669793  8.138832  0.855788  -0.043276  23.250179  147.169085  39.985499  58.74977  -18.243577  -8.035472  -73.50643  94.564  -1.01693  -19.68903  8.758715  -2.441206  9.369979  6.607327  -1.697496  7.063139  
0.0  89.887642  0.0  10.864066  -50.098799  -114.868208  23.707004  -39.140675  -21.364818  18.677903  35.080917  68.390638  15.700479  10.733147  8.634751  -19.064612  22.500961  -14.283731  24.214197  11.275376  49.023163  0.711134  -4.392114  -0.525334  -0.568791  1.294889  1.313591  -1.485161  3.568945  3.563051  -1.485161  3.568945  3.563051  -3.42478  18.709304  13.032629  -106.006047  47.201361  -95.731767  -41.258952  5.87953  72.068911  70.230829  -4.588874  8.653879  0.757379  0.034841  23.063193  146.103757  40.404061  58.297414  -17.459732  -7.634547  -74.329528  94.291027  -0.672452  -20.22174  8.948263  -2.351456  9.143205  6.747237  -1.630557  6.892634  
0.0  89.887642  0.0  10.852636  -49.918581  -115.092455  22.654971  -39.678812  -20.585751  19.283432  35.014519  68.025793  15.60755  10.691667  8.55487  -19.320765  22.437423  -13.933041  24.431107  11.113517  48.85431  0.575519  -4.392342  -0.490224  -0.576044  1.291711  1.356533  -1.502831  3.561593  3.680195  -1.502831  3.561592  3.680195  -3.357824  18.8761  13.276398  -106.231198  47.146226  -95.966366  -41.210119  5.771808  72.086867  70.156088  -4.513528  9.06132  0.957746  0.258719  23.084157  145.741397  40.420351  57.98062  -17.737148  -7.476422  -74.498937  93.967522  -0.415205  -20.526073  8.888853  -2.252082  8.938955  6.70043  -1.559825  6.737807  
0.0  89.887642  0.0  10.798119  -49.885242  -115.3888  21.613579  -40.350497  -19.682522  20.033778  34.968836  67.674578  15.562838  10.632796  8.473573  -19.541906  22.443519  -13.512672  24.756183  10.932697  48.651102  0.696954  -4.335594  -0.484895  -0.604484  1.255477  1.398545  -1.580354  3.465137  3.794307  -1.580354  3.465137  3.794307  -3.0404  19.156701  13.655175  -106.338799  46.994966  -96.10471  -41.195991  5.744594  72.063286  70.125629  -4.435412  9.371605  1.316358  0.53578  23.210544  144.509036  40.987372  57.57963  -16.92791  -7.326943  -75.109623  93.877258  -0.138884  -20.717857  8.888232  -2.067401  8.748947  6.69668  -1.424  6.592727  
0.0  89.887642  0.0  10.460489  -49.584573  -115.258247  20.708389  -40.913388  -19.184662  20.565213  34.940763  67.192157  15.619128  10.588604  8.457465  -19.959813  22.421328  -13.297055  24.68855  10.799476  48.489175  0.735383  -4.356682  -0.483234  -0.618543  1.217071  1.419861  -1.619853  3.361513  3.852665  -1.619853  3.361513  3.852665  -3.113032  19.308757  13.993318  -106.35534  46.86184  -96.173114  -41.216097  5.851565  72.03339  70.087181  -4.338802  9.61236  1.457098  0.734272  23.276829  144.147865  40.999825  57.294258  -16.985161  -7.512668  -75.164949  93.928803  0.023798  -20.715125  8.727129  -1.926096  8.580371  6.573313  -1.32266  6.463745  
0.0  89.887642  0.0  10.088344  -49.295113  -114.961937  20.255365  -41.340503  -18.942866  21.016309  34.798894  66.704582  15.609397  10.431969  8.444276  -20.368369  22.334325  -13.181846  24.344569  10.7142  48.329348  0.816714  -4.325748  -0.443872  -0.66511  1.168527  1.427793  -1.74955  3.231783  3.873076  -1.74955  3.231783  3.873075  -3.12098  19.393025  14.179912  -106.37878  46.740854  -96.308828  -41.294808  6.007663  71.977342  69.992375  -4.231617  9.773378  1.726125  0.879112  23.315889  143.09842  41.422322  56.862768  -16.267157  -7.629678  -75.408299  94.062271  0.171944  -20.608528  8.587241  -1.769933  8.358286  6.465562  -1.210545  6.294562  
0.0  89.887642  0.0  9.704621  -49.027909  -114.68548  20.293787  -41.656387  -18.866454  21.204684  34.502117  66.198026  15.581516  10.202892  8.549262  -20.39733  22.210311  -12.924359  23.999079  10.671656  48.196955  0.837037  -4.336646  -0.356909  -0.660981  1.130407  1.46063  -1.738867  3.128235  3.963953  -1.738867  3.128235  3.963953  -3.349526  19.361292  14.202757  -106.436545  46.694977  -96.393168  -41.38884  6.252656  71.965337  69.86016  -4.134184  9.910817  1.808712  1.008434  23.217919  142.93171  41.427683  56.725948  -16.278092  -7.981142  -75.26943  94.051801  0.253928  -20.329364  8.354955  -1.659005  8.15292  6.289239  -1.133272  6.138306  
0.0  89.887642  0.0  9.77907  -49.04405  -114.7391  21.019354  -41.762628  -18.910393  21.325539  34.056519  65.881714  15.421589  9.94585  8.640246  -20.873458  22.019477  -12.937859  23.383799  10.638711  48.080702  1.412479  -3.608856  -0.471015  -0.641724  1.1169  1.509395  -1.684704  3.091391  4.098544  -1.684704  3.091391  4.098544  -3.543368  19.261791  13.990169  -106.45243  46.601646  -96.54074  -41.505544  6.491633  71.940975  69.728148  -4.037105  10.058415  1.834204  0.993876  23.091313  143.071775  41.376335  56.919849  -16.223365  -8.184783  -75.154418  93.868886  0.24378  -20.087563  8.169533  -1.531471  7.842738  6.14764  -1.044178  5.903428  
0.0  89.887642  0.0  9.420536  -48.759701  -114.461791  21.718528  -41.94512  -19.200135  21.269016  33.572599  65.732593  15.103625  9.746599  8.607902  -20.654269  21.792514  -12.583603  23.047869  10.6369  47.99734  1.293422  -3.581655  -0.340042  -0.653665  1.091464  1.582036  -1.715534  3.024466  4.297219  -1.715534  3.024466  4.297218  -3.775629  19.095896  13.637899  -106.534628  46.605335  -96.531945  -41.620993  6.669355  71.958588  69.611622  -3.895606  10.233845  1.95219  1.051576  22.702693  143.136524  41.308526  57.01228  -16.299121  -8.416387  -74.970222  93.491607  0.25345  -19.759853  7.947296  -1.4496  7.543389  5.979128  -0.989473  5.677231  
0.0  89.887642  0.0  9.162664  -48.551262  -114.249562  22.603609  -42.064389  -19.688004  20.800803  33.321794  65.364457  15.182146  9.707122  8.79159  -20.58573  21.565171  -12.23201  22.833235  10.558951  47.842537  1.103631  -3.50039  -0.208447  -0.680721  1.070635  1.661318  -1.787219  2.971399  4.513279  -1.787219  2.971399  4.513279  -3.98184  18.854398  13.180427  -106.608686  46.572165  -96.571219  -41.734181  6.714144  72.02328  69.520043  -3.649132  10.479146  2.040286  0.977659  22.321237  143.30107  41.114058  57.133224  -17.118415  -8.721703  -74.352029  93.504464  0.484009  -20.095961  7.778991  -1.363117  7.184957  5.850953  -0.931205  5.406855  
0.0  89.887642  0.0  8.848577  -48.303575  -113.987763  23.645608  -42.226168  -20.25265  20.377184  33.173049  65.158938  15.082921  9.556251  8.829807  -20.353478  21.365615  -11.873853  22.599729  10.499254  47.646294  0.78434  -3.430432  -0.017826  -0.677917  1.057906  1.735631  -1.777062  2.938375  4.716935  -1.777062  2.938375  4.716935  -4.280824  18.559042  12.754725  -106.640395  46.624914  -96.425824  -41.824053  6.704938  72.156204  69.465974  -3.257364  10.804361  2.0563  0.916207  21.92072  143.403971  40.991499  57.358754  -17.227121  -8.893264  -74.212821  93.135691  0.476466  -19.878478  7.514308  -1.324507  6.853179  5.651176  -0.909408  5.156867  
0.0  89.887642  0.0  8.595378  -48.09584  -113.766437  24.6796  -42.339834  -20.892018  19.76065  33.288904  64.781746  15.272731  9.451521  9.010904  -20.123446  21.181077  -11.479239  22.387568  10.500082  47.362239  0.488895  -3.382924  0.233856  -0.74708  1.04514  1.773676  -1.965311  2.909511  4.818197  -1.96531  2.909511  4.818196  -4.024505  18.344851  12.519563  -106.504915  46.669886  -96.164459  -41.879729  6.722891  72.347428  69.471776  -2.727495  11.211706  2.46691  0.891311  21.73079  143.737779  40.592576  57.406636  -18.000329  -9.135318  -73.478673  93.016757  0.658033  -19.767625  7.52289  -1.247002  6.617553  5.656234  -0.854057  4.979215  
